<svg xmlns="http://www.w3.org/2000/svg" viewBox="0 0 1200 800">
  <rect width="1200" height="800" rx="28" fill="#06090f"/>
  <rect x="110" y="120" width="980" height="560" rx="24" fill="#0b1420" stroke="#4f637f" stroke-opacity="0.4"/>
  <rect x="170" y="190" width="320" height="210" rx="16" fill="#0f2133" stroke="#5e748f" stroke-opacity="0.4"/>
  <rect x="540" y="170" width="300" height="260" rx="16" fill="#111f2e" stroke="#6d7f8d" stroke-opacity="0.35"/>
  <rect x="180" y="450" width="680" height="140" rx="16" fill="#0a1624" stroke="#7a92a8" stroke-opacity="0.3"/>
  <rect x="190" y="205" width="220" height="125" rx="10" fill="#4b637a" opacity="0.85"/>
  <rect x="420" y="215" width="40" height="110" rx="8" fill="#7ea4c1" opacity="0.45"/>
  <rect x="560" y="190" width="120" height="18" rx="9" fill="#8eaacb" opacity="0.8"/>
  <rect x="560" y="220" width="240" height="150" rx="10" fill="#123148"/>
  <rect x="570" y="232" width="105" height="70" rx="8" fill="#4f7a98" opacity="0.8"/>
  <rect x="690" y="232" width="90" height="70" rx="8" fill="#b8d4eb" opacity="0.35"/>
  <circle cx="890" cy="500" r="100" fill="#f1f3f7" opacity="0.12"/>
  <rect x="760" y="470" width="160" height="90" rx="14" fill="#142234" stroke="#6b8aa1" stroke-opacity="0.35"/>
  <path d="M760 502h160" stroke="#899eb4" stroke-opacity="0.5" stroke-width="2"/>
  <path d="M830 460v110" stroke="#c1d7ef" stroke-opacity="0.25" stroke-width="3"/>
  <circle cx="830" cy="460" r="18" fill="#ffffff" opacity="0.25"/>
</svg>